<svg xmlns="http://www.w3.org/2000/svg" width="1024" height="1024" viewBox="0 0 1024 1024" version="1.1">
	<path d="M 496.591 154.028 C 420.661 160.803, 356.900 208.838, 330.705 279 C 322.457 301.093, 318.741 322.438, 318.782 347.500 C 318.812 366.277, 319.846 376.451, 323.580 394.705 C 334.300 447.116, 367.340 504.879, 404.450 536.090 L 412 542.439 411.988 556.470 C 411.977 570.190, 410.854 577.667, 408.008 582.984 C 405.696 587.304, 397.803 594.966, 392.603 597.937 C 389.796 599.540, 362.075 610.378, 331 622.021 C 299.925 633.664, 270.225 645.388, 265 648.075 C 235.567 663.211, 211.565 691.389, 201.605 722.500 C 195.876 740.394, 195.790 741.302, 195.290 788.668 C 194.961 819.811, 195.164 834.473, 195.977 838.387 C 199.530 855.504, 213.948 869.766, 230.960 872.992 C 238.637 874.448, 785.558 874.378, 793.566 872.920 C 807.457 870.391, 819.994 860.569, 826.285 847.288 L 829.500 840.500 829.809 797 C 830.156 748.164, 829.612 741.828, 823.484 723.340 C 813.729 693.913, 795.672 670.643, 769.500 653.769 C 757.813 646.234, 752.486 643.994, 696.500 623.077 C 666.800 611.980, 639.350 601.378, 635.500 599.516 C 626.239 595.037, 621.027 590.408, 617.267 583.326 C 613.409 576.059, 612 568.556, 612 555.277 L 612 544.921 625.870 531.210 C 649.407 507.945, 664.660 486.806, 679.055 457.500 C 692.348 430.439, 698.239 412.760, 703.213 385.001 C 705.143 374.233, 705.452 369.034, 705.443 347.500 C 705.434 324.110, 705.258 321.681, 702.716 309.776 C 692.216 260.606, 666.435 220.256, 626.533 190.544 C 590.882 163.998, 541.230 150.045, 496.591 154.028 M 497.768 180.112 C 449.903 184.729, 406.332 209.130, 377.441 247.500 C 369.220 258.417, 365.871 263.891, 360.612 275.007 C 345.890 306.121, 341.070 339.001, 346.118 373.870 C 358.211 457.395, 419.946 536.480, 487.670 555.206 C 494.235 557.021, 498.166 557.371, 512 557.375 C 526.740 557.378, 529.566 557.093, 538.500 554.702 C 550.864 551.392, 571.202 541.400, 583.163 532.759 C 633.526 496.374, 668.480 438.787, 678.614 375.500 C 680.712 362.397, 681.014 335.214, 679.187 324 C 669.946 267.293, 637.395 222.574, 587.020 197.377 C 567.759 187.744, 546.952 181.919, 525 180.015 C 512.185 178.903, 510.235 178.910, 497.768 180.112 M 470.427 206.018 C 455.361 208.057, 441.606 217.075, 432.218 231.069 C 429.834 234.623, 428.193 235.919, 424.827 236.905 C 411.695 240.753, 399.629 252.591, 394 267.147 C 392.831 270.170, 391.666 276.200, 391.322 281 C 390.729 289.286, 390.613 289.601, 386.676 293.500 C 370.853 309.176, 364.328 335.668, 370.984 357.209 C 373.163 364.262, 378.651 373.965, 383.035 378.518 L 385.942 381.535 384.483 387.018 C 382.750 393.530, 382.574 404.828, 384.090 412.201 C 384.690 415.115, 386.995 421.300, 389.212 425.944 C 392.446 432.716, 394.874 436.017, 401.474 442.617 C 408.247 449.389, 411.302 451.608, 418.725 455.142 L 427.746 459.438 430.493 465.745 C 435.120 476.366, 445.098 485.654, 456.022 489.508 C 472.393 495.284, 493.995 491.737, 507.447 481.064 L 512.394 477.139 515.657 480.004 C 531.127 493.587, 553.543 496.366, 572.500 487.053 C 582.364 482.207, 588.905 475.775, 593.851 466.057 C 597.278 459.323, 597.836 458.751, 603.024 456.647 C 621.596 449.116, 636.464 431.410, 640.629 411.865 C 642.323 403.914, 642.033 389.805, 640.069 384.667 C 639.097 382.124, 639.338 381.424, 642.417 377.826 C 647.088 372.369, 652.498 361.786, 654.415 354.356 C 656.476 346.366, 656.476 330.631, 654.414 322.644 C 652.160 313.916, 645.789 302.212, 639.518 295.283 C 634.313 289.531, 634.106 289.079, 633.004 281.030 C 631.616 270.894, 629.150 264.062, 624.095 256.354 C 617.656 246.535, 609.575 240.060, 599.144 236.360 C 594.945 234.871, 593.420 233.683, 591.495 230.400 C 588.153 224.698, 577.926 215.496, 571.107 212.054 C 561.311 207.109, 554.886 205.724, 544.113 206.232 C 531.793 206.814, 524.926 209.387, 517.444 216.225 L 511.882 221.309 507.191 216.830 C 501.168 211.080, 498.502 209.478, 491.890 207.636 C 484.461 205.566, 477.596 205.048, 470.427 206.018 M 471.332 231.959 C 461.306 234.347, 453.988 242.642, 454.015 251.588 C 454.035 258.255, 455.620 260.913, 461.618 264.337 C 467.872 267.906, 470.007 271.308, 469.978 277.654 C 469.954 282.776, 468.237 285.877, 464.316 287.883 C 460.894 289.633, 451.994 289.180, 447.219 287.013 C 440.864 284.129, 433.713 276.252, 430.769 268.894 L 428.269 262.646 423.636 267.413 C 412.229 279.151, 413.681 299.343, 426.780 311.108 C 439.633 322.652, 456.323 321.627, 470.142 308.446 C 475.023 303.790, 476.406 303.001, 479.676 303.007 C 490.674 303.026, 496.725 315.557, 490.132 324.659 C 484.130 332.944, 470.779 341.662, 460.445 344.044 C 448.076 346.894, 432.939 344.681, 420.617 338.221 C 413.955 334.728, 404.038 326.123, 400.770 321 L 399.176 318.500 396.838 323.500 C 394.853 327.744, 394.500 330.087, 394.500 339 C 394.500 348.584, 394.751 349.995, 397.376 355.176 C 398.958 358.298, 401.771 362.324, 403.627 364.123 L 407.002 367.394 411.751 365.692 C 414.363 364.756, 418.682 363.992, 421.350 363.995 C 425.506 363.999, 426.675 364.475, 429.521 367.321 C 433.869 371.669, 434.842 376.612, 432.353 381.707 C 430.355 385.797, 428.161 387.135, 416.323 391.483 C 412.375 392.933, 408.589 394.790, 407.909 395.610 C 406.303 397.545, 408.203 408.518, 411.143 414.281 C 414.057 419.992, 421.289 427.376, 426.091 429.541 C 429.880 431.250, 430.272 431.266, 431.123 429.744 C 435.019 422.783, 438.925 419.309, 447.722 414.982 C 466.190 405.897, 468.527 399.314, 459.395 382.099 C 455.646 375.031, 455.313 372.579, 457.421 367.534 C 459.178 363.330, 463.466 361, 469.447 361 C 473.278 361, 474.633 361.577, 478.052 364.666 C 494.852 379.843, 494.727 411.271, 477.806 426.484 C 474.983 429.022, 468.947 432.878, 464.392 435.051 C 459.837 437.225, 455.411 440.003, 454.555 441.225 C 453.595 442.595, 453 445.600, 453 449.075 C 453 456.054, 455.629 460.364, 461.907 463.676 C 467.305 466.523, 477.222 466.825, 484.447 464.363 C 490.679 462.240, 497.450 455.740, 498.890 450.500 C 500.279 445.443, 500.381 265.905, 499 255.278 C 496.659 237.256, 486.178 228.423, 471.332 231.959 M 540.664 232.172 C 535.475 233.616, 530.673 238.678, 527.845 245.688 L 525.500 251.500 525.500 351 C 525.500 462.586, 524.866 453.305, 532.966 460.239 C 540.483 466.673, 552.584 468.005, 561.800 463.412 C 569.396 459.627, 571.007 457.116, 570.968 449.115 C 570.950 445.387, 570.386 441.777, 569.676 440.843 C 568.983 439.932, 564.407 437.232, 559.506 434.843 C 542.907 426.751, 535.007 415.955, 534.181 400.236 C 533.657 390.244, 535.107 382.754, 539.101 374.817 C 544.077 364.930, 552.807 358.731, 559.419 360.390 C 564.240 361.600, 568.145 366.105, 568.709 371.109 C 569.151 375.036, 568.668 376.696, 565.156 383.326 C 560.367 392.364, 559.382 396.598, 560.958 401.372 C 562.855 407.122, 565.877 409.994, 573.845 413.626 C 583.494 418.023, 587.075 420.793, 591.060 426.944 L 594.273 431.901 598.232 429.882 C 604.069 426.904, 610.803 419.671, 613.768 413.196 C 616.739 406.709, 617.887 397.774, 616.036 395.544 C 615.370 394.741, 611.031 392.653, 606.393 390.902 C 592.831 385.784, 589.194 379.765, 594.239 370.788 C 595.471 368.597, 597.698 366.173, 599.190 365.402 C 602.772 363.550, 609.365 363.621, 613.100 365.552 C 616.961 367.548, 619.231 366.765, 622.826 362.196 C 629.239 354.046, 630.482 350.353, 630.491 339.425 C 630.499 330.875, 630.137 328.575, 628.104 324.227 L 625.707 319.104 622.990 322.855 C 618.872 328.540, 610.673 335.280, 603.587 338.807 C 586.898 347.113, 565.897 346.983, 551.377 338.485 C 541.306 332.590, 532.094 321.722, 532.022 315.651 C 531.953 309.885, 537.581 304.197, 543.680 303.869 C 549.111 303.577, 550.098 304.044, 556.352 309.862 C 566.756 319.541, 577.784 321.463, 590.191 315.760 C 597.903 312.215, 601.521 308.719, 605.190 301.266 C 609.341 292.833, 609.689 283.406, 606.141 275.500 C 603.868 270.435, 598.484 263.986, 596.554 264.017 C 595.974 264.026, 594.432 266.501, 593.127 269.516 C 588.313 280.637, 577.637 289, 568.254 289 C 559.899 289, 554.833 284.229, 554.833 276.360 C 554.833 270.570, 556.664 267.945, 563.319 264.189 C 569.083 260.936, 571.022 257.750, 570.978 251.601 C 570.950 247.650, 567.961 241.141, 564.869 238.299 C 559.112 233.006, 547.883 230.164, 540.664 232.172 M 437.701 570.217 C 436.617 585.164, 430.400 598.633, 419.530 609.582 C 407.485 621.715, 411.270 620.081, 289.636 665.662 C 254.344 678.887, 228.873 709.307, 222.468 745.881 C 220.379 757.807, 220.332 829.157, 222.409 834.128 C 224.524 839.188, 227.746 842.830, 232.055 845.028 C 235.687 846.881, 238.061 847, 271.460 847 L 307 847 307 811.450 C 307 772.187, 307.061 771.763, 313.299 767.960 C 317.094 765.645, 320.817 765.479, 325.454 767.416 C 332.456 770.342, 332.443 770.266, 333 810.710 L 333.500 847.012 512.500 847.012 L 691.500 847.013 692 810.710 C 692.447 778.270, 692.687 774.122, 694.259 771.725 C 698.808 764.788, 708.975 764.123, 714.716 770.387 L 718 773.971 718 810.485 C 718 839.017, 718.273 847.005, 719.250 847.025 C 719.938 847.039, 735.728 847.028, 754.341 847 C 791.052 846.947, 792.512 846.756, 798.232 841.277 C 804.027 835.727, 804.155 834.494, 803.765 787.948 C 803.368 740.635, 803.238 739.580, 795.613 721.985 C 788.116 704.686, 773.245 687.299, 756.788 676.592 C 745.392 669.177, 746.193 669.511, 683.500 646.028 C 653.800 634.903, 625.909 623.933, 621.519 621.650 C 609.963 615.640, 599.608 605.187, 594.128 594 C 589.748 585.058, 587.046 574.706, 587.017 566.750 C 587.008 564.138, 586.766 562, 586.480 562 C 586.194 562, 584.057 563.205, 581.730 564.678 C 579.404 566.151, 573.450 569.249, 568.500 571.562 C 529.557 589.760, 486.500 588.181, 448 567.144 C 443.325 564.590, 439.230 562.373, 438.901 562.217 C 438.571 562.061, 438.031 565.661, 437.701 570.217" stroke="none" fill="#71e830" fill-rule="evenodd"/>
</svg>